<svg data-name="Laag 1" version="1.1" viewBox="0 0 292.15 292.15" xmlns="http://www.w3.org/2000/svg">
 <g fill="#1b6e83" stroke-width="1.3014">
  <path d="m169.53 208.12 1.7439 0.16919z"/>
  <path d="m110.38 163.93c13.248 18.688 18.441 24.089 43.103 24.089 40.344 0 84.345-16.918 89.72-66.307 1.0802-9.9298-2.0042-19.521-5.6352-28.189a73.114 73.114 0 1 0-76.38 113.22 73.296 73.296 0 0 1-50.807-42.817z"/>
  <path d="m163.99 207.28q2.2384 0.41646 4.5289 0.70277-2.2775-0.28631-4.5289-0.70277z"/>
  <path d="m177.38 208.57"/>
  <path d="m174.45 208.49-1.4576-0.0781z"/>
  <path d="m161.32 206.74c0.85894 0.19521 1.7179 0.39042 2.6028 0.54659-0.88497-0.1822-1.7439-0.36439-2.6028-0.54659z"/>
  <circle cx="197.56" cy="103.33" r="43.441"/>
  <path d="m213.43 42.757a43.35 43.35 0 0 0-32.848 15.018h0.15617a1.9001 1.9001 0 0 1 0.57263-0.07809l-0.57263 0.07809a1.3014 1.3014 0 0 0-0.23426 0.10411l-0.80688 0.96305a2.733 2.733 0 0 0-0.10411 0.55961c18.806-3.4097 37.611-1.7049 49.571 11.973 9.2531 10.411 15.851 24.298 21.434 37.312a44.04 44.04 0 0 0 6.2728-22.476 43.441 43.441 0 0 0-43.441-43.454z"/>
 </g>
 <polygon transform="matrix(1.3014 0 0 1.3014 -44.03 2.4127)" points="49.64 49.22 57.12 44.54 89.36 61.89 86.25 68.27" fill="#fff"/>
 <g stroke-width="1.3014">
  <path d="m1.3506 55.771s9.5134 5.4269 23.803 13.222l8.9017 4.594 4.3988-5.3749a1.9521 1.9521 0 0 1 2.733-0.26028 1.9261 1.9261 0 0 1 0.26028 2.72l-3.9043 4.7372 3.9043 1.9782 3.3967-4.1385a1.9391 1.9391 0 1 1 2.9933 2.4597l-2.9152 3.4878 3.3056 1.7049 4.7111-5.7393a1.9391 1.9391 0 0 1 2.9933 2.4597l-4.1906 5.1016 3.4097 1.7569 2.6028-3.1755a1.9391 1.9391 0 1 1 2.9933 2.4467l-2.0953 2.6028 3.7351 1.9521 4.4769-5.453a1.9391 1.9391 0 1 1 2.9933 2.4467l-3.9043 4.8283 22.515 11.713c25.807 12.416 49.975 22.489 60.503 22.489 27.421 0 49.662-15.318 49.662-34.227 0-18.91-22.293-34.331-49.714-34.331zm26.028 10.711a1.3014 1.3014 0 0 1 0-0.37741 1.9131 1.9131 0 0 1 0.10411-0.3644 1.3014 1.3014 0 0 1 0.1822-0.32536 1.835 1.835 0 0 1 0.23426-0.29933 1.9521 1.9521 0 0 1 1.7569-0.53358l0.35138 0.11713a1.3665 1.3665 0 0 1 0.33837 0.16918 2.746 2.746 0 0 1 0.29933 0.24727 1.835 1.835 0 0 1 0.23426 0.29933 1.3014 1.3014 0 0 1 0.1822 0.32536 1.3014 1.3014 0 0 1 0.10411 0.3644 1.848 1.848 0 0 1 0 0.75482 1.3014 1.3014 0 0 1-0.10411 0.3644 1.3014 1.3014 0 0 1-0.1822 0.32536 1.835 1.835 0 0 1-0.23426 0.29933 1.6918 1.6918 0 0 1-0.29933 0.23426 1.0672 1.0672 0 0 1-0.33837 0.1822l-0.35138 0.11713h-0.37741a1.9521 1.9521 0 0 1-1.3795-0.57262 1.835 1.835 0 0 1-0.23426-0.29933 1.3014 1.3014 0 0 1-0.1822-0.32536 1.9131 1.9131 0 0 1-0.10411-0.3644 1.3014 1.3014 0 0 1 0.03904-0.35138z" fill="#1b6e83"/>
  <path d="m222.94 55.888a38.132 38.132 0 0 0-44.561 4.6851 32.874 32.874 0 0 1 3.0583 3.4227c1.2364 0 2.4857-0.0911 3.7221-0.0911a76.992 76.992 0 0 1 56.846 24.974 38.132 38.132 0 0 0-19.066-32.991z" fill="#cf5c3d"/>
  <path d="m242.01 88.879c2.9542 22.449 1.1062 29.035 1.1062 29.035l28.722 53.215a32.08 32.08 0 0 0 3.3316-5.8954z" fill="#f2b707"/>
  <path d="m275.17 165.23a32.08 32.08 0 0 1-3.3316 5.8954l18.962 33.681z" fill="#826515"/>
  <circle cx="242.01" cy="89.452" r="4.1645" fill="#fff"/>
  <path d="m157.49 122.96a15.083 15.083 0 0 1-2.4597-0.23426c-5.6482-0.93702-14.797-4.6851-27.187-11.14-31.664-16.476-75.925-46.135-88.353-54.517h118c11.804 0 22.931 4.3077 30.518 11.804a33.212 33.212 0 0 1 2.9412 3.3056 28.957 28.957 0 0 1 6.3509 17.023v0.84592 0.84592c-0.57262 17.66-18.389 32.067-39.81 32.067z" fill="#f2b707"/>
  <path d="m157.49 58.27c11.479 0 22.28 4.1645 29.633 11.439a29.763 29.763 0 0 1 2.8371 3.1885 27.694 27.694 0 0 1 6.0906 16.333v0.75482 0.80688c-0.52057 17.049-17.816 30.922-38.561 30.922a13.925 13.925 0 0 1-2.2514-0.22125c-5.518-0.91099-14.472-4.555-26.822-11.062-29.191-15.188-69.118-41.645-84.827-52.213h113.9m0-2.5117h-122.07s54.36 37.442 91.841 56.95c11.426 5.9475 21.291 10.216 27.564 11.27a17.231 17.231 0 0 0 2.6028 0.24727c22.384 0.0521 40.604-14.81 41.138-33.264v-0.88497-0.88497a30.154 30.154 0 0 0-6.6242-17.751 32.835 32.835 0 0 0-3.0193-3.4748c-7.5743-7.4441-18.832-12.142-31.429-12.142z" fill="#f2b707"/>
 </g>
 <polygon transform="matrix(1.3014 0 0 1.3014 -44.03 2.4127)" points="162.1 165.85 167.46 161.91 187.46 175.53 182.92 180.7" fill="#fff"/>
 <g stroke-width="1.3014">
  <path d="m114.39 173.19c3.7871 7.3921 19.521 20.732 37.546 34.371l23.803 16.918 4.3337-4.3337a1.9391 1.9391 0 1 1 2.746 2.733l-3.9043 3.9043 3.0974 2.1994 2.2515-2.2515a1.9417 1.9417 0 1 1 2.746 2.746l-1.796 1.796 3.3837 2.4076 4.581-4.594a1.9417 1.9417 0 0 1 2.746 2.746l-4.1385 4.1255 5.8824 4.1906c10.607 7.2359 17.829 11.96 17.829 11.96l-53.059-103.54c-9.8648-19.248-28.631-29.347-41.893-22.554-13.261 6.7934-16.02 27.928-6.1557 47.176zm57.575 45.55a1.7309 1.7309 0 0 1 0-0.3644 1.7049 1.7049 0 0 1 0.11713-0.36439 1.6398 1.6398 0 0 1 0.16918-0.33837 1.7829 1.7829 0 0 1 0.24727-0.28632l0.28631-0.24727a2.1473 2.1473 0 0 1 0.33837-0.18219 1.1713 1.1713 0 0 1 0.3644-0.10412 1.848 1.848 0 0 1 0.75482 0 1.1713 1.1713 0 0 1 0.3644 0.10412 2.1473 2.1473 0 0 1 0.33837 0.18219l0.28631 0.24727a1.8871 1.8871 0 0 1 0.57263 1.3014 1.9521 1.9521 0 0 1-0.57263 1.3795 1.9521 1.9521 0 0 1-2.733 0 1.8871 1.8871 0 0 1-0.24727-0.29933 1.5487 1.5487 0 0 1-0.16918-0.32535 1.9782 1.9782 0 0 1-0.11713-0.3644 1.8871 1.8871 0 0 1 0.039-0.39043z" fill="#1b6e83"/>
  <path d="m200.29 225.18c-11.309-6.2078-46.851-26.028-69.301-41.971-8.9668-6.3509-14.862-11.4-17.543-15.018a10.841 10.841 0 0 1-1.0281-1.6008c-7.6393-14.901-3.9954-32.536 8.1339-39.147l0.57263-0.31235 0.52056-0.26028a21.929 21.929 0 0 1 9.5004-2.1213 24.727 24.727 0 0 1 4.6461 0.44248 25.287 25.287 0 0 1 3.3446 0.87195 34.071 34.071 0 0 1 19.105 17.049z" fill="#cf5c3d"/>
  <path d="m131.14 126.05a24.415 24.415 0 0 1 7.6003 1.3014 32.796 32.796 0 0 1 18.376 16.424l3.0844 6.0256 37.09 72.385c-13.951-7.7304-45.224-25.443-65.579-39.902-8.8627-6.2859-14.667-11.244-17.27-14.745a10.19 10.19 0 0 1-0.911-1.4316c-7.327-14.316-3.9043-31.117 7.6133-37.468l0.5466-0.29932 0.55961-0.2733a20.458 20.458 0 0 1 8.8887-2.0172m0-2.5118a23.009 23.009 0 0 0-9.9689 2.2254l-0.62468 0.29933-0.61167 0.32535c-12.78 7.0537-16.671 25.143-8.6414 40.826a13.756 13.756 0 0 0 1.1322 1.783c2.9933 4.0214 9.5394 9.4093 17.829 15.292 27.174 19.3 73.01 43.988 73.01 43.988l-40.826-79.712-3.0844-6.0256a35.203 35.203 0 0 0-19.821-17.66 24.935 24.935 0 0 0-3.5138-0.911 25.846 25.846 0 0 0-4.8803-0.52057z" fill="#cf5c3d"/>
 </g>
 <g fill="#1b6e83" stroke-width="1.3014">
  <path d="m74.959 136.85a1.1192 1.1192 0 0 0 0.76784-0.31234l30.805-30.805a1.1062 1.1062 0 0 0 0-1.5357 1.0802 1.0802 0 0 0-1.5357 0l-30.805 30.805a1.0802 1.0802 0 0 0 0.76784 1.848z"/>
  <path d="m74.777 152.6a1.0672 1.0672 0 0 0 0.76784-0.31234l9.5264-9.5264a1.0906 1.0906 0 1 0-1.5617-1.5227l-9.4874 9.5394a1.0802 1.0802 0 0 0 0 1.5357 1.0672 1.0672 0 0 0 0.75482 0.28631z"/>
  <path d="m88.806 138.58a1.1192 1.1192 0 0 0 0.76784-0.31234l12.103-12.116a1.0802 1.0802 0 0 0 0-1.5357 1.0672 1.0672 0 0 0-1.5227 0l-12.116 12.116a1.0802 1.0802 0 0 0 0.76784 1.848z"/>
  <path d="m69.076 172.9a1.1192 1.1192 0 0 0 0.76784-0.31234l30.453-30.466a1.0802 1.0802 0 0 0 0-1.5357 1.1062 1.1062 0 0 0-1.5357 0l-30.453 30.466a1.0802 1.0802 0 0 0 0.76784 1.848z"/>
  <path d="m83.431 174.06a1.0672 1.0672 0 0 0 0.76784-0.31234l8.6544-8.6544a1.0802 1.0802 0 0 0 0-1.5357 1.1062 1.1062 0 0 0-1.5357 0l-8.6544 8.6544a1.1062 1.1062 0 0 0 0 1.5357 1.1192 1.1192 0 0 0 0.76784 0.31234z"/>
  <path d="m97.825 159.69a1.0932 1.0932 0 0 0 0.76784-0.31234l25.013-25.013a1.0813 1.0813 0 0 0-1.5357-1.5227l-25.013 25a1.1062 1.1062 0 0 0 0 1.5357 1.1192 1.1192 0 0 0 0.76784 0.31234z"/>
  <path d="m75.297 197.08a1.0281 1.0281 0 0 0 0.76784-0.32536l48.153-48.153a1.0859 1.0859 0 0 0-1.5357-1.5357l-48.153 48.153a1.0932 1.0932 0 0 0 0.76784 1.848z"/>
  <path d="m99.881 188.07a1.1192 1.1192 0 0 0 0.76784-0.31234l21.46-21.46a1.0859 1.0859 0 0 0-1.5357-1.5357l-21.447 21.46a1.0802 1.0802 0 0 0 0.76784 1.848z"/>
  <path d="m86.372 216.12a1.0281 1.0281 0 0 0 0.76784-0.32536l9.1099-9.175a1.0672 1.0672 0 0 0 0-1.5227 1.0802 1.0802 0 0 0-1.5357 0l-9.1099 9.1099a1.0802 1.0802 0 0 0 0 1.5357 1.0281 1.0281 0 0 0 0.76784 0.37742z"/>
  <path d="m101.26 201.23a1.0932 1.0932 0 0 0 0.76784-0.31234l21.291-21.291a1.0859 1.0859 0 1 0-1.5357-1.5357l-21.291 21.291a1.0802 1.0802 0 0 0 0.76784 1.848z"/>
  <path d="m108.87 208.84a1.0672 1.0672 0 0 0 0.76784-0.31234l11.075-11.075a1.0859 1.0859 0 0 0-1.5357-1.5357l-11.075 11.075a1.1062 1.1062 0 0 0 0 1.5357 1.1192 1.1192 0 0 0 0.76784 0.31234z"/>
  <path d="m106.02 226.58a1.1192 1.1192 0 0 0 0.76784-0.31234l24.87-24.844a1.0672 1.0672 0 0 0 0-1.5227 1.0802 1.0802 0 0 0-1.5357 0l-24.831 24.831a1.0802 1.0802 0 0 0 0.76784 1.848z"/>
 </g>
</svg>
